REM DIRINDEX 1\5,1\2\6,1\2\7,1\3\8,1\3\9,1\4\10,1\4\11,1\4\12
REM DIRNAME folder01,folder02,folder03,folder04,folder05,folder06,folder07,folder08,folder09,folder10,folder11,folder12
TITLE ""
FILE "EJE_DB3000_5th_4B_45.mp3" MP3
  TRACK 01 AUDIO
    TITLE "0:"
    INDEX 01 00:00:00
  TRACK 02 AUDIO
    TITLE "10:cjc026_09927"
    INDEX 01 00:00:05
  TRACK 03 AUDIO
    TITLE "0:"
    INDEX 01 00:00:70
  TRACK 04 AUDIO
    TITLE "11:cjc026_09928"
    INDEX 01 00:01:21
  TRACK 05 AUDIO
    TITLE "0:"
    INDEX 01 00:02:10
  TRACK 06 AUDIO
    TITLE "12:cjc026_09929"
    INDEX 01 00:02:36
  TRACK 07 AUDIO
    TITLE "0:"
    INDEX 01 00:03:25
  TRACK 08 AUDIO
    TITLE "10:cjc026_09930"
    INDEX 01 00:03:53
  TRACK 09 AUDIO
    TITLE "0:"
    INDEX 01 00:04:44
  TRACK 10 AUDIO
    TITLE "11:cjc026_09931"
    INDEX 01 00:04:72
  TRACK 11 AUDIO
    TITLE "0:"
    INDEX 01 00:05:52
  TRACK 12 AUDIO
    TITLE "12:cjc026_09932"
    INDEX 01 00:06:04
  TRACK 13 AUDIO
    TITLE "0:"
    INDEX 01 00:06:71
  TRACK 14 AUDIO
    TITLE "10:cjc026_09933"
    INDEX 01 00:07:23
  TRACK 15 AUDIO
    TITLE "0:"
    INDEX 01 00:08:15
  TRACK 16 AUDIO
    TITLE "11:cjc026_09934"
    INDEX 01 00:08:42
  TRACK 17 AUDIO
    TITLE "0:"
    INDEX 01 00:09:36
  TRACK 18 AUDIO
    TITLE "12:cjc026_09935"
    INDEX 01 00:09:61
  TRACK 19 AUDIO
    TITLE "0:"
    INDEX 01 00:10:55
  TRACK 20 AUDIO
    TITLE "10:cjc026_09936"
    INDEX 01 00:11:07
  TRACK 21 AUDIO
    TITLE "0:"
    INDEX 01 00:12:12
  TRACK 22 AUDIO
    TITLE "11:cjc026_09937"
    INDEX 01 00:12:38
  TRACK 23 AUDIO
    TITLE "0:"
    INDEX 01 00:13:45
  TRACK 24 AUDIO
    TITLE "12:cjc026_09938"
    INDEX 01 00:13:73
  TRACK 25 AUDIO
    TITLE "0:"
    INDEX 01 00:15:05
  TRACK 26 AUDIO
    TITLE "10:cjc026_09939"
    INDEX 01 00:15:28
  TRACK 27 AUDIO
    TITLE "0:"
    INDEX 01 00:16:32
  TRACK 28 AUDIO
    TITLE "11:cjc026_09940"
    INDEX 01 00:16:59
  TRACK 29 AUDIO
    TITLE "0:"
    INDEX 01 00:17:72
  TRACK 30 AUDIO
    TITLE "12:cjc026_09941"
    INDEX 01 00:18:23
  TRACK 31 AUDIO
    TITLE "0:"
    INDEX 01 00:19:26
  TRACK 32 AUDIO
    TITLE "10:cjc026_09942"
    INDEX 01 00:19:54
  TRACK 33 AUDIO
    TITLE "0:"
    INDEX 01 00:20:63
  TRACK 34 AUDIO
    TITLE "11:cjc026_09943"
    INDEX 01 00:21:15
  TRACK 35 AUDIO
    TITLE "0:"
    INDEX 01 00:22:34
  TRACK 36 AUDIO
    TITLE "12:cjc026_09944"
    INDEX 01 00:22:60
  TRACK 37 AUDIO
    TITLE "0:"
    INDEX 01 00:23:69
  TRACK 38 AUDIO
    TITLE "10:cjc026_09945"
    INDEX 01 00:24:22
  TRACK 39 AUDIO
    TITLE "0:"
    INDEX 01 00:25:19
  TRACK 40 AUDIO
    TITLE "11:cjc026_09946"
    INDEX 01 00:25:45
  TRACK 41 AUDIO
    TITLE "0:"
    INDEX 01 00:26:58
  TRACK 42 AUDIO
    TITLE "12:cjc026_09947"
    INDEX 01 00:27:08
  TRACK 43 AUDIO
    TITLE "0:"
    INDEX 01 00:28:06
  TRACK 44 AUDIO
    TITLE "10:cjc026_09948"
    INDEX 01 00:28:31
  TRACK 45 AUDIO
    TITLE "0:"
    INDEX 01 00:29:27
  TRACK 46 AUDIO
    TITLE "11:cjc026_09949"
    INDEX 01 00:29:56
  TRACK 47 AUDIO
    TITLE "0:"
    INDEX 01 00:30:73
  TRACK 48 AUDIO
    TITLE "12:cjc026_09950"
    INDEX 01 00:31:24
  TRACK 49 AUDIO
    TITLE "0:"
    INDEX 01 00:32:19
  TRACK 50 AUDIO
    TITLE "10:cjc026_09951"
    INDEX 01 00:32:48
  TRACK 51 AUDIO
    TITLE "0:"
    INDEX 01 00:33:52
  TRACK 52 AUDIO
    TITLE "11:cjc026_09952"
    INDEX 01 00:34:06
  TRACK 53 AUDIO
    TITLE "0:"
    INDEX 01 00:35:15
  TRACK 54 AUDIO
    TITLE "12:cjc026_09953"
    INDEX 01 00:35:43
  TRACK 55 AUDIO
    TITLE "0:"
    INDEX 01 00:36:46
  TRACK 56 AUDIO
    TITLE "10:cjc026_09954"
    INDEX 01 00:37:01
  TRACK 57 AUDIO
    TITLE "0:"
    INDEX 01 00:37:69
  TRACK 58 AUDIO
    TITLE "11:cjc026_09955"
    INDEX 01 00:38:22
  TRACK 59 AUDIO
    TITLE "0:"
    INDEX 01 00:39:23
  TRACK 60 AUDIO
    TITLE "12:cjc026_09956"
    INDEX 01 00:39:51
  TRACK 61 AUDIO
    TITLE "0:"
    INDEX 01 00:40:42
  TRACK 62 AUDIO
    TITLE "10:cjc026_09957"
    INDEX 01 00:40:70
  TRACK 63 AUDIO
    TITLE "0:"
    INDEX 01 00:41:65
  TRACK 64 AUDIO
    TITLE "11:cjc026_09958"
    INDEX 01 00:42:18
  TRACK 65 AUDIO
    TITLE "0:"
    INDEX 01 00:43:37
  TRACK 66 AUDIO
    TITLE "12:cjc026_09959"
    INDEX 01 00:43:62
  TRACK 67 AUDIO
    TITLE "0:"
    INDEX 01 00:44:58
  TRACK 68 AUDIO
    TITLE "10:cjc026_09960"
    INDEX 01 00:45:10
  TRACK 69 AUDIO
    TITLE "0:"
    INDEX 01 00:46:07
  TRACK 70 AUDIO
    TITLE "11:cjc026_09961"
    INDEX 01 00:46:35
  TRACK 71 AUDIO
    TITLE "0:"
    INDEX 01 00:47:46
  TRACK 72 AUDIO
    TITLE "12:cjc026_09962"
    INDEX 01 00:47:74
  TRACK 73 AUDIO
    TITLE "0:"
    INDEX 01 00:48:71
  TRACK 74 AUDIO
    TITLE "10:cjc026_09963"
    INDEX 01 00:49:23
  TRACK 75 AUDIO
    TITLE "0:"
    INDEX 01 00:50:21
  TRACK 76 AUDIO
    TITLE "11:cjc026_09964"
    INDEX 01 00:50:48
  TRACK 77 AUDIO
    TITLE "0:"
    INDEX 01 00:51:48
  TRACK 78 AUDIO
    TITLE "12:cjc026_09965"
    INDEX 01 00:52:02
  TRACK 79 AUDIO
    TITLE "0:"
    INDEX 01 00:53:00
  TRACK 80 AUDIO
    TITLE "10:cjc026_09966"
    INDEX 01 00:53:25
  TRACK 81 AUDIO
    TITLE "0:"
    INDEX 01 00:54:36
  TRACK 82 AUDIO
    TITLE "11:cjc026_09967"
    INDEX 01 00:54:58
  TRACK 83 AUDIO
    TITLE "0:"
    INDEX 01 00:55:53
  TRACK 84 AUDIO
    TITLE "12:cjc026_09968"
    INDEX 01 00:56:02
  TRACK 85 AUDIO
    TITLE "0:"
    INDEX 01 00:57:13
